<?xml version="1.0" encoding="UTF-8" standalone="no" ?>
<!DOCTYPE svg PUBLIC "-//W3C//DTD SVG 1.1//EN" "http://www.w3.org/Graphics/SVG/1.1/DTD/svg11.dtd">
<svg xmlns="http://www.w3.org/2000/svg" xmlns:xlink="http://www.w3.org/1999/xlink" version="1.1" width="50" height="50" viewBox="0 0 1080 1080" xml:space="preserve">
  <desc>Created with Fabric.js 5.2.4</desc>
  <defs>
  </defs>
  <g transform="matrix(1 0 0 1 540 540)" id="e4a4e6f9-c001-44aa-a7aa-50b9ad8bd4cb">
    <rect style="stroke: none; stroke-width: 1; stroke-dasharray: none; stroke-linecap: butt; stroke-dashoffset: 0; stroke-linejoin: miter; stroke-miterlimit: 4; fill: rgb(255,255,255); fill-rule: nonzero; opacity: 1; visibility: hidden;" vector-effect="non-scaling-stroke" x="-540" y="-540" rx="0" ry="0" width="50" height="50" />
  </g>
  <g transform="matrix(1 0 0 1 540 540)" id="3b9d4c3d-24b5-4eae-b0b5-3067dcf7052f">
  </g>
  <g transform="matrix(33.75 0 0 33.75 540 540)">
    <path style="stroke: none; stroke-width: 1; stroke-dasharray: none; stroke-linecap: butt; stroke-dashoffset: 0; stroke-linejoin: miter; stroke-miterlimit: 4; fill: rgb(0,0,0); fill-rule: nonzero; opacity: 1;" transform=" translate(-16, -15.99)" d="M 32 24.795 C 30.836 25.091 30.116 24.808000000000003 29.47 23.838 L 24.875999999999998 17.482 L 24.211999999999996 16.602 L 18.846999999999994 23.859 C 18.233999999999995 24.732000000000003 17.590999999999994 25.112000000000002 16.446999999999996 24.803 L 23.316999999999997 15.581000000000001 L 16.920999999999996 7.251000000000001 C 18.020999999999997 7.037000000000001 18.780999999999995 7.146000000000001 19.455999999999996 8.131000000000002 L 24.220999999999997 14.566000000000003 L 29.020999999999997 8.166000000000002 C 29.635999999999996 7.293000000000002 30.296999999999997 6.961000000000002 31.400999999999996 7.283000000000002 L 28.920999999999996 10.571000000000002 L 25.560999999999996 14.946000000000002 C 25.160999999999998 15.446000000000002 25.215999999999998 15.788000000000002 25.583999999999996 16.271 L 32 24.795 z M 0.008 15.427 L 0.5700000000000001 12.663 C 2.1 7.193 8.37 4.92 12.694 8.3 C 15.221 10.288 15.849 13.100000000000001 15.724 16.25 L 1.48 16.25 C 1.266 21.92 5.3469999999999995 25.342 10.55 23.596 C 12.375 22.983 13.450000000000001 21.554000000000002 13.988000000000001 19.766 C 14.261000000000001 18.869999999999997 14.713000000000001 18.729999999999997 15.555000000000001 18.985999999999997 C 15.125000000000002 21.221999999999998 14.155000000000001 23.089999999999996 12.105 24.258999999999997 C 9.042 26.008999999999997 4.670000000000001 25.442999999999998 2.370000000000001 23.010999999999996 C 1 21.6 0.434 19.812 0.18 17.9 C 0.13999999999999999 17.584 0.06 17.282999999999998 0 16.979999999999997 Q 0.008 16.203999999999997 0.008 15.427999999999997 z M 1.506 15.046999999999999 L 14.378 15.046999999999999 C 14.294 10.947 11.741 8.035 8.251999999999999 8.009999999999998 C 4.421999999999999 7.979999999999998 1.6719999999999988 10.822999999999999 1.5059999999999985 15.046999999999997 z" stroke-linecap="round" />
  </g>
  <g transform="matrix(33.75 0 0 33.75 540 540)">
    <path style="stroke: none; stroke-width: 1; stroke-dasharray: none; stroke-linecap: butt; stroke-dashoffset: 0; stroke-linejoin: miter; stroke-miterlimit: 4; fill: rgb(0,0,0); fill-rule: nonzero; opacity: 1;" transform=" translate(-16, -15.99)" d="M 32 24.795 C 30.836 25.091 30.116 24.808000000000003 29.47 23.838 L 24.875999999999998 17.482 L 24.211999999999996 16.602 L 18.846999999999994 23.859 C 18.233999999999995 24.732000000000003 17.590999999999994 25.112000000000002 16.446999999999996 24.803 L 23.316999999999997 15.581000000000001 L 16.920999999999996 7.251000000000001 C 18.020999999999997 7.037000000000001 18.780999999999995 7.146000000000001 19.455999999999996 8.131000000000002 L 24.220999999999997 14.566000000000003 L 29.020999999999997 8.166000000000002 C 29.635999999999996 7.293000000000002 30.296999999999997 6.961000000000002 31.400999999999996 7.283000000000002 L 28.920999999999996 10.571000000000002 L 25.560999999999996 14.946000000000002 C 25.160999999999998 15.446000000000002 25.215999999999998 15.788000000000002 25.583999999999996 16.271 L 32 24.795 z M 0.008 15.427 L 0.5700000000000001 12.663 C 2.1 7.193 8.37 4.92 12.694 8.3 C 15.221 10.288 15.849 13.100000000000001 15.724 16.25 L 1.48 16.25 C 1.266 21.92 5.3469999999999995 25.342 10.55 23.596 C 12.375 22.983 13.450000000000001 21.554000000000002 13.988000000000001 19.766 C 14.261000000000001 18.869999999999997 14.713000000000001 18.729999999999997 15.555000000000001 18.985999999999997 C 15.125000000000002 21.221999999999998 14.155000000000001 23.089999999999996 12.105 24.258999999999997 C 9.042 26.008999999999997 4.670000000000001 25.442999999999998 2.370000000000001 23.010999999999996 C 1 21.6 0.434 19.812 0.18 17.9 C 0.13999999999999999 17.584 0.06 17.282999999999998 0 16.979999999999997 Q 0.008 16.203999999999997 0.008 15.427999999999997 z M 1.506 15.046999999999999 L 14.378 15.046999999999999 C 14.294 10.947 11.741 8.035 8.251999999999999 8.009999999999998 C 4.421999999999999 7.979999999999998 1.6719999999999988 10.822999999999999 1.5059999999999985 15.046999999999997 z" stroke-linecap="round" />
  </g>
  <g transform="matrix(33.75 0 0 33.75 540 540)">
    <path style="stroke: rgb(255,255,255); stroke-width: 1; stroke-dasharray: none; stroke-linecap: butt; stroke-dashoffset: 0; stroke-linejoin: miter; stroke-miterlimit: 4; fill: rgb(255,255,255); fill-rule: nonzero; opacity: 1;" transform=" translate(-16, -15.99)" d="M 32 24.795 C 30.836 25.091 30.116 24.808000000000003 29.47 23.838 L 24.875999999999998 17.482 L 24.211999999999996 16.602 L 18.846999999999994 23.859 C 18.233999999999995 24.732000000000003 17.590999999999994 25.112000000000002 16.446999999999996 24.803 L 23.316999999999997 15.581000000000001 L 16.920999999999996 7.251000000000001 C 18.020999999999997 7.037000000000001 18.780999999999995 7.146000000000001 19.455999999999996 8.131000000000002 L 24.220999999999997 14.566000000000003 L 29.020999999999997 8.166000000000002 C 29.635999999999996 7.293000000000002 30.296999999999997 6.961000000000002 31.400999999999996 7.283000000000002 L 28.920999999999996 10.571000000000002 L 25.560999999999996 14.946000000000002 C 25.160999999999998 15.446000000000002 25.215999999999998 15.788000000000002 25.583999999999996 16.271 L 32 24.795 z M 0.008 15.427 L 0.5700000000000001 12.663 C 2.1 7.193 8.37 4.92 12.694 8.3 C 15.221 10.288 15.849 13.100000000000001 15.724 16.25 L 1.48 16.25 C 1.266 21.92 5.3469999999999995 25.342 10.55 23.596 C 12.375 22.983 13.450000000000001 21.554000000000002 13.988000000000001 19.766 C 14.261000000000001 18.869999999999997 14.713000000000001 18.729999999999997 15.555000000000001 18.985999999999997 C 15.125000000000002 21.221999999999998 14.155000000000001 23.089999999999996 12.105 24.258999999999997 C 9.042 26.008999999999997 4.670000000000001 25.442999999999998 2.370000000000001 23.010999999999996 C 1 21.6 0.434 19.812 0.18 17.9 C 0.13999999999999999 17.584 0.06 17.282999999999998 0 16.979999999999997 Q 0.008 16.203999999999997 0.008 15.427999999999997 z M 1.506 15.046999999999999 L 14.378 15.046999999999999 C 14.294 10.947 11.741 8.035 8.251999999999999 8.009999999999998 C 4.421999999999999 7.979999999999998 1.6719999999999988 10.822999999999999 1.5059999999999985 15.046999999999997 z" stroke-linecap="round" />
  </g>
</svg>